M48
; DRILL file {KiCad (5.1.2)-1} date 2026/07/02 22:54:17
; FORMAT={-:-/ absolute / metric / decimal}
; #@! TF.CreationDate,2026-07-02T22:54:17+09:00
; #@! TF.GenerationSoftware,Kicad,Pcbnew,(5.1.2)-1
FMAT,2
METRIC
T1C0.350
T2C0.400
T3C0.600
T4C0.762
T5C0.650
T6C3.200
%
G90
G05
T1
X155.625Y-104.225
X155.625Y-105.5
X155.625Y-106.775
X156.9Y-104.225
X156.9Y-105.5
X156.9Y-106.775
X158.175Y-104.225
X158.175Y-105.5
X158.175Y-106.775
T2
X138.9Y-116.0
X141.836Y-112.723
X142.792Y-116.82
X144.3Y-112.6
X144.3Y-121.2
X145.384Y-102.304
X146.036Y-85.692
X146.452Y-103.372
X148.443Y-94.468
X149.2Y-83.5
X149.758Y-90.804
X150.0Y-117.9
X150.0Y-121.0
X150.2Y-103.2
X150.5Y-98.1
X151.3Y-103.6
X152.662Y-92.135
X153.8Y-99.1
X154.711Y-110.551
X154.915Y-113.25
X155.233Y-111.948
X155.397Y-92.785
X155.648Y-97.055
X155.821Y-99.555
X156.2Y-93.443
X156.472Y-100.388
X156.607Y-95.105
X156.625Y-111.605
X156.851Y-92.56
X156.988Y-87.123
X157.011Y-112.74
X157.014Y-86.153
X157.234Y-115.25
X157.638Y-93.153
X157.8Y-98.475
X157.846Y-114.023
X157.95Y-87.445
X158.459Y-115.25
X158.65Y-86.784
X159.014Y-110.561
X160.673Y-110.775
X161.1Y-84.1
X161.561Y-108.072
X161.576Y-106.753
X161.763Y-98.689
X161.827Y-87.995
X162.201Y-86.114
X162.214Y-85.128
X162.331Y-89.299
X162.536Y-107.072
X162.541Y-112.933
X162.709Y-108.1
X162.9Y-95.7
X162.932Y-99.855
X162.932Y-101.673
X164.5Y-94.8
X164.61Y-113.515
X165.2Y-124.6
X167.701Y-110.968
X168.6Y-96.4
X168.6Y-105.0
X168.708Y-110.929
X169.039Y-101.792
X169.7Y-117.2
X171.6Y-89.3
X174.2Y-96.0
X175.1Y-117.1
T4
X140.0Y-89.0
X140.0Y-91.0
X140.0Y-93.0
X140.0Y-95.0
X140.0Y-100.0
X140.0Y-102.0
X140.0Y-104.0
X140.0Y-106.0
T5
X154.11Y-123.65
X159.89Y-123.65
T6
X140.0Y-127.0
X174.0Y-127.0
X174.0Y-83.0
X140.0Y-83.0
T3
G00X152.68Y-122.57
M15
G01X152.68Y-123.67
M16
G05
G00X152.68Y-127.0
M15
G01X152.68Y-127.6
M16
G05
G00X161.32Y-122.57
M15
G01X161.32Y-123.67
M16
G05
G00X161.32Y-127.0
M15
G01X161.32Y-127.6
M16
G05
T0
M30
